<svg width="35" height="35" viewBox="0 0 35 35" fill="none" xmlns="http://www.w3.org/2000/svg">
<path d="M3.23959 17.5002C3.23959 13.7181 4.74203 10.0909 7.41637 7.41653C10.0907 4.74218 13.7179 3.23975 17.5 3.23975V0.927246C8.34559 0.927246 0.927094 8.34575 0.927094 17.5002H3.23959ZM9.34305 29.1814C5.6523 26.5991 3.23959 22.3364 3.23959 17.5002H0.927094C0.927094 23.1272 3.74063 28.0837 8.01876 31.0761L9.34305 29.1814ZM9.9998 23.4279L8.88826 29.3325L11.1607 29.761L12.2707 23.8565L9.9998 23.4279ZM7.86459 17.5002C7.86459 19.8034 8.67705 21.917 10.0245 23.5712L11.8159 22.1113C10.7514 20.8108 10.1721 19.1807 10.1771 17.5002H7.86459ZM17.5 7.86475C14.9445 7.86475 12.4937 8.8799 10.6867 10.6869C8.87975 12.4939 7.86459 14.9447 7.86459 17.5002H10.1771C10.1771 15.558 10.9486 13.6954 12.3219 12.3221C13.6952 10.9488 15.5579 10.1772 17.5 10.1772V7.86475ZM27.1354 17.5002C27.1354 14.9447 26.1203 12.4939 24.3133 10.6869C22.5063 8.8799 20.0555 7.86475 17.5 7.86475V10.1772C19.4422 10.1772 21.3048 10.9488 22.6781 12.3221C24.0514 13.6954 24.8229 15.558 24.8229 17.5002H27.1354ZM24.9771 23.5712C26.3775 21.8583 27.1403 19.7127 27.1354 17.5002H24.8229C24.8276 19.1802 24.2483 20.8097 23.1841 22.1097L24.9771 23.5712ZM26.1118 29.3325L25.0002 23.4279L22.7278 23.8565L23.8378 29.761L26.1118 29.3325ZM31.7604 17.5002C31.7605 19.7951 31.2054 22.056 30.1426 24.09C29.0799 26.124 27.5409 27.8708 25.657 29.1814L26.9828 31.0776C31.2609 28.0822 34.0729 23.1272 34.0729 17.5002H31.7604ZM17.5 3.23975C21.2821 3.23975 24.9093 4.74218 27.5836 7.41653C30.258 10.0909 31.7604 13.7181 31.7604 17.5002H34.0729C34.0729 8.34575 26.6544 0.927246 17.5 0.927246V3.23975ZM23.2813 17.5002C23.2813 15.9669 22.6722 14.4964 21.588 13.4122C20.5038 12.328 19.0333 11.7189 17.5 11.7189V14.0314C18.42 14.0314 19.3023 14.3969 19.9528 15.0474C20.6033 15.6979 20.9688 16.5802 20.9688 17.5002H23.2813ZM20.4369 22.4767C21.3027 21.966 22.0205 21.2385 22.5193 20.3657C23.0181 19.493 23.2807 18.5054 23.2813 17.5002H20.9688C20.9688 18.769 20.2858 19.8805 19.2606 20.4848L20.4369 22.4767ZM22.1065 31.3983L20.4338 22.361L18.1598 22.7819L19.8326 31.8192L22.1065 31.3983ZM17.5 34.0731C18.5252 34.0731 19.5196 33.9698 20.4831 33.791L20.0592 31.5185C19.2155 31.6782 18.3587 31.7593 17.5 31.7606V34.0731ZM14.5138 33.7894C15.4773 33.9698 16.4733 34.0731 17.5 34.0731V31.7606C16.6412 31.7582 15.7845 31.6762 14.9408 31.5155L14.5138 33.7894ZM14.5678 22.361L12.8951 31.3967L15.169 31.8176L16.8417 22.7819L14.5678 22.361ZM11.7188 17.5002C11.7188 19.623 12.8658 21.4746 14.5647 22.4767L15.7394 20.4848C15.2198 20.1787 14.789 19.7425 14.4894 19.2191C14.1899 18.6957 14.032 18.1032 14.0313 17.5002H11.7188ZM17.5 11.7189C15.9667 11.7189 14.4962 12.328 13.412 13.4122C12.3279 14.4964 11.7188 15.9669 11.7188 17.5002H14.0313C14.0313 16.5802 14.3967 15.6979 15.0472 15.0474C15.6978 14.3969 16.58 14.0314 17.5 14.0314V11.7189ZM16.8417 22.7819C17.0298 21.7613 16.4424 20.9011 15.7394 20.4848L14.5647 22.4767L14.5801 22.489C14.5842 22.4941 14.5842 22.4936 14.5801 22.4875C14.5731 22.4729 14.5684 22.4573 14.5662 22.4412C14.5627 22.4146 14.5643 22.3876 14.5678 22.361L16.8417 22.7819ZM14.9408 31.5155C15.1243 31.5494 15.1875 31.7143 15.169 31.8176L12.8951 31.3967C12.6962 32.4667 13.3653 33.5736 14.5138 33.7894L14.9408 31.5155ZM23.8393 29.7595C24.0983 31.1347 25.7078 31.9687 26.9843 31.0761L25.657 29.1814C25.7013 29.1519 25.7537 29.1338 25.8067 29.1287C25.8597 29.1236 25.9131 29.1316 25.9622 29.1521C26.0424 29.1875 26.0979 29.26 26.1118 29.3325L23.8393 29.7595ZM12.2722 23.8549C12.3284 23.5486 12.3167 23.2337 12.2378 22.9324C12.159 22.6311 12.0149 22.3508 11.8159 22.1113L10.0245 23.5712C10.0137 23.5589 9.98439 23.5096 9.9998 23.4279L12.2722 23.8549ZM19.2606 20.4848C18.5576 20.9011 17.9702 21.7613 18.1598 22.7819L20.4338 22.361C20.4374 22.3882 20.4374 22.4156 20.4338 22.4427C20.4315 22.4583 20.4268 22.4733 20.4199 22.4875C20.4158 22.4936 20.4158 22.4941 20.4199 22.489L20.4369 22.4767L19.2606 20.4848ZM23.1841 22.1113C22.8064 22.5738 22.606 23.2043 22.7278 23.8565L25.0002 23.4279C25.0156 23.5111 24.9879 23.5589 24.9771 23.5712L23.1841 22.1113ZM19.8326 31.8192C19.8233 31.7493 19.8419 31.6787 19.8843 31.6224C19.9267 31.5662 19.9895 31.5289 20.0592 31.5185L20.4831 33.791C21.6317 33.5767 22.3038 32.4697 22.1065 31.3983L19.8326 31.8192ZM8.01876 31.0761C9.29372 31.9687 10.9001 31.1347 11.1607 29.761L8.88826 29.334C8.89727 29.2941 8.91548 29.2569 8.94145 29.2253C8.96741 29.1937 9.00041 29.1686 9.0378 29.1521C9.08727 29.1316 9.14104 29.1237 9.19431 29.129C9.24758 29.1344 9.29869 29.1514 9.34305 29.1814L8.01876 31.0761Z" fill="url(#paint0_linear_1095_680)"/>
<defs>
<linearGradient id="paint0_linear_1095_680" x1="17.5" y1="0.927246" x2="17.5" y2="34.0731" gradientUnits="userSpaceOnUse">
<stop stop-color="#FF7538"/>
<stop offset="1" stop-color="#6069FF"/>
</linearGradient>
</defs>
</svg>
