<svg width="76" height="29" viewBox="0 0 76 29" fill="none" xmlns="http://www.w3.org/2000/svg">
<path fill-rule="evenodd" clip-rule="evenodd" d="M60.5776 7.11902L54.1224 13.4974L40.6404 -0.00976562L53.5507 -0.0097645L60.5776 7.11902Z" fill="white"/>
<path fill-rule="evenodd" clip-rule="evenodd" d="M39.9473 0.741211L27.0972 13.4969H39.9473L46.407 7.11404L39.9473 0.741211Z" fill="white"/>
<path d="M69.0965 14.1704C68.8016 14.9609 68.3722 16.153 67.8082 17.7468C67.0774 17.7468 65.9814 17.7468 64.52 17.7468C64.52 19.5998 64.52 22.3857 64.52 26.1046C64.52 26.7654 64.2892 27.3291 63.8277 27.7956C63.3661 28.2621 62.8086 28.4953 62.1547 28.4953C61.8342 28.4953 61.3407 28.4953 60.6741 28.4953C60.6741 26.1111 60.6741 22.5282 60.6741 17.7468C59.9434 17.7468 58.8474 17.7468 57.386 17.7468C57.1039 16.9564 56.6745 15.7642 56.0977 14.1704C58.2641 14.1704 60.4306 14.1704 62.597 14.1704C64.7636 14.1704 66.93 14.1704 69.0965 14.1704Z" fill="white"/>
<path d="M70.385 14.1704C71.6284 14.1704 73.5 14.1704 75.9998 14.1704C75.9998 17.3451 75.9998 22.1201 75.9998 28.4953C75.1409 28.4953 73.859 28.4953 72.1541 28.4953C72.1541 26.1758 72.1541 22.6902 72.1541 18.0383C72.1541 17.1053 72.0002 16.3084 71.6925 15.6476C71.3849 14.9868 70.9491 14.4943 70.385 14.1704Z" fill="white"/>
<path d="M28.6802 17.7148C29.9273 17.7148 30.9187 18.0931 31.6545 18.8494C32.4027 19.6057 32.7768 20.7465 32.7768 22.2717V28.1333H29.2226V22.8579C29.2226 22.1394 29.0855 21.6099 28.8111 21.2696C28.5492 20.9293 28.1751 20.7591 27.6888 20.7591C27.1525 20.7591 26.7223 20.9481 26.3981 21.3264C26.0738 21.7046 25.9116 22.278 25.9116 23.0469V28.1333H22.3576V22.8579C22.3576 21.4587 21.8462 20.7591 20.8236 20.7591C20.2749 20.7591 19.8385 20.9481 19.5142 21.3264C19.19 21.7046 19.0278 22.278 19.0278 23.0469V25.6121C19.0278 25.6121 18.984 28.1333 15.4736 28.1333V17.8851H18.8595V18.9628C19.2336 18.5469 19.6763 18.2381 20.1876 18.0364C20.7113 17.8221 21.2788 17.7148 21.8899 17.7148C22.6007 17.7148 23.2367 17.8472 23.7979 18.112C24.3591 18.3768 24.8143 18.7801 25.1634 19.3221C25.5625 18.8053 26.0676 18.4082 26.6787 18.1309C27.2896 17.8535 27.9569 17.7148 28.6802 17.7148Z" fill="white"/>
<path d="M38.5941 17.7148C40.2778 17.7148 41.5621 18.1057 42.4476 18.8872C43.3329 19.6561 43.7757 20.841 43.7757 22.4419V28.1333H40.4648V26.8098C39.9534 27.8056 38.9558 28.3034 37.4718 28.3034C36.6861 28.3034 36.0064 28.1647 35.4329 27.8875C34.8592 27.6101 34.4226 27.2383 34.1233 26.7719C33.8366 26.2928 33.6931 25.7508 33.6931 25.1458C33.6931 24.1751 34.061 23.4251 34.7967 22.8957C35.5326 22.3537 36.6674 22.0827 38.2013 22.0827H40.2216C40.1592 20.9986 39.4422 20.4566 38.0704 20.4566C37.584 20.4566 37.0915 20.5385 36.5926 20.7024C36.0938 20.8536 35.6697 21.0679 35.3206 21.3453L34.1233 18.9062C34.6845 18.5279 35.3642 18.2381 36.1624 18.0364C36.9729 17.8221 37.7836 17.7148 38.5941 17.7148ZM38.4632 26.0345C38.8747 26.0345 39.2364 25.9336 39.5481 25.7319C39.8599 25.5302 40.0844 25.2341 40.2216 24.8432V23.9545H38.6876C37.6526 23.9545 37.1351 24.3012 37.1351 24.9945C37.1351 25.3096 37.2535 25.5618 37.4905 25.7508C37.7275 25.9399 38.0517 26.0345 38.4632 26.0345Z" fill="white"/>
<path d="M51.8737 17.7148C53.1333 17.7148 54.1434 18.0931 54.9042 18.8494C55.6773 19.6057 56.0639 20.7465 56.0639 22.2717V28.1333H52.5097V22.8579C52.5097 21.4587 51.9547 20.7591 50.8449 20.7591C50.2338 20.7591 49.7413 20.9608 49.3672 21.3642C49.0054 21.7675 48.8247 22.3727 48.8247 23.1793V28.1333H45.2705V14.1704H48.8247V18.8304C49.2112 18.465 49.6665 18.1876 50.1902 17.9985C50.714 17.8095 51.2751 17.7148 51.8737 17.7148Z" fill="white"/>
<path d="M7.50327 13.4971C9.61261 13.4971 11.2662 14.0477 12.4641 15.1492C13.662 16.2376 14.261 17.7407 14.261 19.6586C14.261 20.2416 14.261 21.1163 14.261 22.2825C14.261 24.1873 13.662 25.6904 12.4641 26.7919C11.2532 27.8803 9.59959 28.4245 7.50327 28.4245C5.40697 28.4245 3.75987 27.8803 2.56197 26.7919C1.36409 25.6904 0.765137 24.1873 0.765137 22.2825C0.765137 21.6993 0.765137 20.8248 0.765137 19.6586C0.765137 17.7407 1.36409 16.2376 2.56197 15.1492C3.75987 14.0477 5.40697 13.4971 7.50327 13.4971ZM10.1985 22.3796C10.1985 21.7576 10.1985 20.8182 10.1985 19.5613C10.1985 18.7968 9.96417 18.1943 9.49543 17.7538C9.01366 17.3131 8.34962 17.0928 7.50327 17.0928C6.66997 17.0928 6.01242 17.3131 5.53066 17.7538C5.04891 18.1943 4.80803 18.7968 4.80803 19.5613C4.80803 20.1833 4.80803 21.1227 4.80803 22.3796C4.80803 23.1441 5.04891 23.7467 5.53066 24.1873C6.01242 24.6278 6.66997 24.8481 7.50327 24.8481C8.34962 24.8481 9.01366 24.6278 9.49543 24.1873C9.96417 23.7467 10.1985 23.1441 10.1985 22.3796Z" fill="white"/>
</svg>
